<?xml version="1.0" encoding="utf-8"?>
<!-- Svg Vector Icons : http://www.sfont.cn -->
<!DOCTYPE svg PUBLIC "-//W3C//DTD SVG 1.1//EN" "http://www.w3.org/Graphics/SVG/1.1/DTD/svg11.dtd">
<svg version="1.1" xmlns="http://www.w3.org/2000/svg" xmlns:xlink="http://www.w3.org/1999/xlink" x="0px" y="0px" viewBox="0 0 1000 1000" enable-background="new 0 0 1000 1000" xml:space="preserve">
<metadata> Svg Vector Icons : http://www.sfont.cn </metadata>
<g><path d="M28.9,90.8h151.4c10.5,0,18.9,8.3,18.9,18.6c0,10.3-8.5,18.6-18.9,18.6H28.9c-10.5,0-18.9-8.3-18.9-18.6C10,99.1,18.5,90.8,28.9,90.8z"/><path d="M350.7,648.8h548.9c10.5,0,18.9,8.3,18.9,18.6S910,686,899.6,686H350.7c-10.5,0-18.9-8.3-18.9-18.6C331.8,657.1,340.3,648.8,350.7,648.8z"/><path d="M352.5,202.4h602c11.5,0,20.8,8.3,20.8,18.6s-9.3,18.6-20.8,18.6h-602c-11.5,0-20.8-8.3-20.8-18.6C331.8,210.7,341.1,202.4,352.5,202.4z"/><path d="M369,351.2h531.2c10.1,0,18.3,8.3,18.3,18.6s-8.2,18.6-18.3,18.6H369c-10.1,0-18.3-8.3-18.3-18.6S358.9,351.2,369,351.2z"/><path d="M350.7,500h548.9c10.5,0,18.9,8.3,18.9,18.6c0,10.3-8.5,18.6-18.9,18.6H350.7c-10.5,0-18.9-8.3-18.9-18.6C331.8,508.3,340.3,500,350.7,500z"/><path d="M976,200c10.1,2.7,16.1,12.9,13.4,22.8L911,510.3c-2.7,9.9-13.1,15.8-23.2,13.2c-10.1-2.7-16.1-12.8-13.4-22.8l78.4-287.5C955.5,203.3,965.9,197.4,976,200z"/><path d="M196.6,101c10.1-2.7,20.5,3.2,23.2,13.2l147,539c2.7,9.9-3.3,20.1-13.4,22.8c-10.1,2.7-20.5-3.2-23.2-13.2l-147-539C180.5,113.8,186.5,103.6,196.6,101z"/><path d="M426.4,723.2c52.3,0,94.6,41.6,94.6,93s-42.4,93-94.6,93c-52.3,0-94.6-41.6-94.6-93C331.8,764.8,374.1,723.2,426.4,723.2z"/><path d="M426.4,760.4c31.4,0,56.8,25,56.8,55.8c0,30.8-25.4,55.8-56.8,55.8c-31.3,0-56.8-25-56.8-55.8C369.6,785.4,395.1,760.4,426.4,760.4z"/><path d="M842.8,723.2c52.3,0,94.6,41.6,94.6,93s-42.4,93-94.6,93c-52.3,0-94.6-41.6-94.6-93C748.2,764.8,790.6,723.2,842.8,723.2z"/><path d="M842.8,760.4c31.4,0,56.8,25,56.8,55.8c0,30.8-25.4,55.8-56.8,55.8s-56.8-25-56.8-55.8C786.1,785.4,811.5,760.4,842.8,760.4z"/></g>
</svg>